<svg width="127" height="127" viewBox="0 0 127 127" fill="none" xmlns="http://www.w3.org/2000/svg">
<path d="M108.401 18.5986C96.4077 6.60531 80.4614 0 63.5 0C46.5386 0 30.5923 6.60531 18.5986 18.5986C6.60531 30.5923 0 46.5386 0 63.5C0 80.4614 6.60531 96.4077 18.5986 108.401C30.5923 120.395 46.5386 127 63.5 127C80.4614 127 96.4077 120.395 108.401 108.401C120.395 96.4077 127 80.4614 127 63.5C127 46.5386 120.395 30.5923 108.401 18.5986ZM63.5 119.144C32.8176 119.144 7.85567 94.1824 7.85567 63.5C7.85567 32.8176 32.8176 7.85567 63.5 7.85567C94.1824 7.85567 119.144 32.8176 119.144 63.5C119.144 94.1824 94.1824 119.144 63.5 119.144Z" fill="white"/>
<path d="M47.4121 88.1339L90.0621 63.4998L47.4121 38.8657V88.1339Z" fill="white"/>
</svg>
